<svg xmlns="http://www.w3.org/2000/svg" xmlns:xlink="http://www.w3.org/1999/xlink" version="1.1" id="Layer_1" width="512px" height="512px" viewBox="0 0 512 512" enable-background="new 0 0 512 512" xml:space="preserve"><path fill="#E87A31" d="M151.145,313.606c0,0-61.52-43.667-99.97-71.968s-32.138-51.457,14.028-51.457s126.046,0,126.046,0  s25.344-78.001,39.376-121.186s36.993-43.186,51.025,0c14.032,43.186,39.376,121.186,39.376,121.186s79.88,0,126.046,0  s52.137,23.104,13.27,51.343s-99.212,72.082-99.212,72.082s22.192,68.3,37.342,114.928s-5.323,60.897-45.497,31.71l-96.837-70.356  l-96.837,70.356c-40.174,29.188-60.647,14.918-45.497-31.71S151.145,313.606,151.145,313.606z"/></svg>